HIERARCHY
ROOT Root
{
  OFFSET 0.0 0.0 0.0
  CHANNELS 6 Xposition Yposition Zposition Zrotation Yrotation Xrotation
  JOINT Hips
  {
    OFFSET 0.0 100.0 0.0
    CHANNELS 6 Xposition Yposition Zposition Zrotation Yrotation Xrotation
    JOINT Spine1
    {
      OFFSET 5.003913 -0.037094 -0.013727
      CHANNELS 3 Zrotation Yrotation Xrotation
      JOINT Spine2
      {
        OFFSET 7.125363 -1e-06 0.0
        CHANNELS 3 Zrotation Yrotation Xrotation
        JOINT Chest
        {
          OFFSET 7.594027 1e-06 0.0
          CHANNELS 3 Zrotation Yrotation Xrotation
          JOINT Neck1
          {
            OFFSET 26.313086 -0.460272 -0.181672
            CHANNELS 3 Zrotation Yrotation Xrotation
            JOINT Neck2
            {
              OFFSET 8.045911 0.0 0.0
              CHANNELS 3 Zrotation Yrotation Xrotation
              JOINT Head
              {
                OFFSET 6.432774 0.0 0.0
                CHANNELS 3 Zrotation Yrotation Xrotation
                JOINT HeadEnd
                {
                  OFFSET 16.169773 0.06451 0.00362
                  CHANNELS 3 Zrotation Yrotation Xrotation
                }
                JOINT Jaw
                {
                  OFFSET 0.108741 3.12938 0.002639
                  CHANNELS 3 Zrotation Yrotation Xrotation
                }
                JOINT LeftEye
                {
                  OFFSET 4.45173 8.166359 3.206392
                  CHANNELS 3 Zrotation Yrotation Xrotation
                }
                JOINT RightEye
                {
                  OFFSET 4.436895 8.135758 -3.222429
                  CHANNELS 3 Zrotation Yrotation Xrotation
                }
              }
            }
          }
          JOINT LeftShoulder
          {
            OFFSET 23.218927 5.195579 1.621656
            CHANNELS 3 Zrotation Yrotation Xrotation
            JOINT LeftArm
            {
              OFFSET 15.902118 2e-06 -2e-06
              CHANNELS 3 Zrotation Yrotation Xrotation
              JOINT LeftForeArm
              {
                OFFSET 28.739307 0.0 -1e-06
                CHANNELS 3 Zrotation Yrotation Xrotation
                JOINT LeftHand
                {
                  OFFSET 27.093981 -4e-06 0.0
                  CHANNELS 3 Zrotation Yrotation Xrotation
                  JOINT LeftHandThumb1
                  {
                    OFFSET 2.276781 3.380274 0.83384
                    CHANNELS 3 Zrotation Yrotation Xrotation
                    JOINT LeftHandThumb2
                    {
                      OFFSET 4.705309 -1e-06 -1e-06
                      CHANNELS 3 Zrotation Yrotation Xrotation
                      JOINT LeftHandThumb3
                      {
                        OFFSET 2.798515 0.0 3e-06
                        CHANNELS 3 Zrotation Yrotation Xrotation
                        JOINT LeftHandThumbEnd
                        {
                          OFFSET 3.180793 4e-06 -4e-06
                          CHANNELS 3 Zrotation Yrotation Xrotation
                        }
                      }
                    }
                  }
                  JOINT LeftHandIndex1
                  {
                    OFFSET 3.247786 2.352677 0.137192
                    CHANNELS 3 Zrotation Yrotation Xrotation
                    JOINT LeftHandIndex2
                    {
                      OFFSET 6.367095 1e-06 0.0
                      CHANNELS 3 Zrotation Yrotation Xrotation
                      JOINT LeftHandIndex3
                      {
                        OFFSET 3.662364 0.0 0.0
                        CHANNELS 3 Zrotation Yrotation Xrotation
                        JOINT LeftHandIndex4
                        {
                          OFFSET 2.329242 4e-06 -4e-06
                          CHANNELS 3 Zrotation Yrotation Xrotation
                          JOINT LeftHandIndexEnd
                          {
                            OFFSET 2.767823 1e-06 0.0
                            CHANNELS 3 Zrotation Yrotation Xrotation
                          }
                        }
                      }
                    }
                  }
                  JOINT LeftHandMiddle1
                  {
                    OFFSET 3.163612 0.945023 -0.406112
                    CHANNELS 3 Zrotation Yrotation Xrotation
                    JOINT LeftHandMiddle2
                    {
                      OFFSET 6.276789 3e-06 0.0
                      CHANNELS 3 Zrotation Yrotation Xrotation
                      JOINT LeftHandMiddle3
                      {
                        OFFSET 4.35652 -1e-06 4e-06
                        CHANNELS 3 Zrotation Yrotation Xrotation
                        JOINT LeftHandMiddle4
                        {
                          OFFSET 2.996877 0.0 8e-06
                          CHANNELS 3 Zrotation Yrotation Xrotation
                          JOINT LeftHandMiddleEnd
                          {
                            OFFSET 2.323256 3e-06 -4e-06
                            CHANNELS 3 Zrotation Yrotation Xrotation
                          }
                        }
                      }
                    }
                  }
                  JOINT LeftHandRing1
                  {
                    OFFSET 2.882606 -0.309162 0.107445
                    CHANNELS 3 Zrotation Yrotation Xrotation
                    JOINT LeftHandRing2
                    {
                      OFFSET 6.033198 0.0 4e-06
                      CHANNELS 3 Zrotation Yrotation Xrotation
                      JOINT LeftHandRing3
                      {
                        OFFSET 4.350578 3e-06 0.0
                        CHANNELS 3 Zrotation Yrotation Xrotation
                        JOINT LeftHandRing4
                        {
                          OFFSET 2.651321 2e-06 -7e-06
                          CHANNELS 3 Zrotation Yrotation Xrotation
                          JOINT LeftHandRingEnd
                          {
                            OFFSET 1.937663 1e-06 -4e-06
                            CHANNELS 3 Zrotation Yrotation Xrotation
                          }
                        }
                      }
                    }
                  }
                  JOINT LeftHandPinky1
                  {
                    OFFSET 2.865315 -1.525436 0.575687
                    CHANNELS 3 Zrotation Yrotation Xrotation
                    JOINT LeftHandPinky2
                    {
                      OFFSET 5.54936 1e-06 -8e-06
                      CHANNELS 3 Zrotation Yrotation Xrotation
                      JOINT LeftHandPinky3
                      {
                        OFFSET 3.070974 0.0 -4e-06
                        CHANNELS 3 Zrotation Yrotation Xrotation
                        JOINT LeftHandPinky4
                        {
                          OFFSET 1.549672 1e-06 0.0
                          CHANNELS 3 Zrotation Yrotation Xrotation
                          JOINT LeftHandPinkyEnd
                          {
                            OFFSET 1.952123 0.0 0.0
                            CHANNELS 3 Zrotation Yrotation Xrotation
                          }
                        }
                      }
                    }
                  }
                }
              }
            }
          }
          JOINT RightShoulder
          {
            OFFSET 23.161716 5.296122 -1.380114
            CHANNELS 3 Zrotation Yrotation Xrotation
            JOINT RightArm
            {
              OFFSET -16.027195 -2e-06 1.1e-05
              CHANNELS 3 Zrotation Yrotation Xrotation
              JOINT RightForeArm
              {
                OFFSET -28.736639 4e-06 2e-06
                CHANNELS 3 Zrotation Yrotation Xrotation
                JOINT RightHand
                {
                  OFFSET -27.133619 6e-06 0.0
                  CHANNELS 3 Zrotation Yrotation Xrotation
                  JOINT RightHandThumb1
                  {
                    OFFSET -2.274328 -3.351035 -0.83067
                    CHANNELS 3 Zrotation Yrotation Xrotation
                    JOINT RightHandThumb2
                    {
                      OFFSET -4.703594 -3e-06 2e-06
                      CHANNELS 3 Zrotation Yrotation Xrotation
                      JOINT RightHandThumb3
                      {
                        OFFSET -2.794935 -4e-06 -3e-06
                        CHANNELS 3 Zrotation Yrotation Xrotation
                        JOINT RightHandThumbEnd
                        {
                          OFFSET -3.183852 4e-06 1e-06
                          CHANNELS 3 Zrotation Yrotation Xrotation
                        }
                      }
                    }
                  }
                  JOINT RightHandIndex1
                  {
                    OFFSET -3.253496 -2.33755 -0.127667
                    CHANNELS 3 Zrotation Yrotation Xrotation
                    JOINT RightHandIndex2
                    {
                      OFFSET -6.344434 0.0 0.0
                      CHANNELS 3 Zrotation Yrotation Xrotation
                      JOINT RightHandIndex3
                      {
                        OFFSET -3.654871 0.0 -8e-06
                        CHANNELS 3 Zrotation Yrotation Xrotation
                        JOINT RightHandIndex4
                        {
                          OFFSET -2.327586 -1e-06 0.0
                          CHANNELS 3 Zrotation Yrotation Xrotation
                          JOINT RightHandIndexEnd
                          {
                            OFFSET -2.770001 3e-06 8e-06
                            CHANNELS 3 Zrotation Yrotation Xrotation
                          }
                        }
                      }
                    }
                  }
                  JOINT RightHandMiddle1
                  {
                    OFFSET -3.168223 -0.944764 0.411762
                    CHANNELS 3 Zrotation Yrotation Xrotation
                    JOINT RightHandMiddle2
                    {
                      OFFSET -6.266691 -1e-06 -4e-06
                      CHANNELS 3 Zrotation Yrotation Xrotation
                      JOINT RightHandMiddle3
                      {
                        OFFSET -4.348901 0.0 0.0
                        CHANNELS 3 Zrotation Yrotation Xrotation
                        JOINT RightHandMiddle4
                        {
                          OFFSET -3.00024 2e-06 -4e-06
                          CHANNELS 3 Zrotation Yrotation Xrotation
                          JOINT RightHandMiddleEnd
                          {
                            OFFSET -2.321477 -4e-06 -4e-06
                            CHANNELS 3 Zrotation Yrotation Xrotation
                          }
                        }
                      }
                    }
                  }
                  JOINT RightHandRing1
                  {
                    OFFSET -2.885654 0.293261 -0.119232
                    CHANNELS 3 Zrotation Yrotation Xrotation
                    JOINT RightHandRing2
                    {
                      OFFSET -6.032835 -1e-06 -4e-06
                      CHANNELS 3 Zrotation Yrotation Xrotation
                      JOINT RightHandRing3
                      {
                        OFFSET -4.33881 0.0 -4e-06
                        CHANNELS 3 Zrotation Yrotation Xrotation
                        JOINT RightHandRing4
                        {
                          OFFSET -2.654903 -4e-06 -4e-06
                          CHANNELS 3 Zrotation Yrotation Xrotation
                          JOINT RightHandRingEnd
                          {
                            OFFSET -1.935122 0.0 4e-06
                            CHANNELS 3 Zrotation Yrotation Xrotation
                          }
                        }
                      }
                    }
                  }
                  JOINT RightHandPinky1
                  {
                    OFFSET -2.866241 1.503904 -0.60527
                    CHANNELS 3 Zrotation Yrotation Xrotation
                    JOINT RightHandPinky2
                    {
                      OFFSET -5.553177 -2e-06 0.0
                      CHANNELS 3 Zrotation Yrotation Xrotation
                      JOINT RightHandPinky3
                      {
                        OFFSET -3.062664 -1e-06 -4e-06
                        CHANNELS 3 Zrotation Yrotation Xrotation
                        JOINT RightHandPinky4
                        {
                          OFFSET -1.546529 2e-06 4e-06
                          CHANNELS 3 Zrotation Yrotation Xrotation
                          JOINT RightHandPinkyEnd
                          {
                            OFFSET -1.952341 0.0 -4e-06
                            CHANNELS 3 Zrotation Yrotation Xrotation
                          }
                        }
                      }
                    }
                  }
                }
              }
            }
          }
        }
      }
    }
    JOINT LeftLeg
    {
      OFFSET -8.443107 2.567604 10.043214
      CHANNELS 3 Zrotation Yrotation Xrotation
      JOINT LeftShin
      {
        OFFSET 43.229198 1e-06 -1e-06
        CHANNELS 3 Zrotation Yrotation Xrotation
        JOINT LeftFoot
        {
          OFFSET 42.298611 1e-06 1e-06
          CHANNELS 3 Zrotation Yrotation Xrotation
          JOINT LeftToeBase
          {
            OFFSET 14.165858 1e-06 0.0
            CHANNELS 3 Zrotation Yrotation Xrotation
            JOINT LeftToeEnd
            {
              OFFSET 6.7141 -0.234461 0.0
              CHANNELS 3 Zrotation Yrotation Xrotation
            }
          }
        }
      }
    }
    JOINT RightLeg
    {
      OFFSET -8.303923 2.592729 -10.047278
      CHANNELS 3 Zrotation Yrotation Xrotation
      JOINT RightShin
      {
        OFFSET -43.369682 0.0 1e-06
        CHANNELS 3 Zrotation Yrotation Xrotation
        JOINT RightFoot
        {
          OFFSET -42.260784 4e-06 2e-06
          CHANNELS 3 Zrotation Yrotation Xrotation
          JOINT RightToeBase
          {
            OFFSET -14.222245 -2e-06 -1e-06
            CHANNELS 3 Zrotation Yrotation Xrotation
            JOINT RightToeEnd
            {
              OFFSET -6.660062 0.232574 -2e-06
              CHANNELS 3 Zrotation Yrotation Xrotation
            }
          }
        }
      }
    }
  }
}
MOTION
Frames: 5
Frame Time: 0.03333333333333333
0.0 0.0 0.0 0.0 -0.0 0.0 -7.765648 93.918175 248.382355 91.792419 4.299788 95.107162 7.461539 -0.325266 -0.488681 -9.28358 -0.377142 -1.05742 24.670115 -1.059382 -3.164204 41.302299 -0.487736 2.386803 -2.693751 -0.772502 -1.67345 -45.232288 -1.906188 -1.530232 6e-06 0.0 0.0 0.040106 -0.008928 0.082174 0.144954 -0.083711 0.140693 0.145606 0.060639 0.028731 -104.974365 -76.535332 127.344414 25.665644 -26.835375 13.95873 54.891548 -1.331792 -0.105336 5.904698 -1.061508 -9.85199 17.636621 -26.322721 52.411182 -19.46666 -14.395594 29.410389 -1e-06 -8.77482 -0.0 16.315176 -18.469706 5.818158 -0.609777 -1.795654 -3.889328 -4.807087 -11.04681 -2.937848 3e-06 -20.976015 -1e-06 -5.019973 -25.033554 -4.031874 6e-06 1e-06 -3e-06 -10.634531 -5.68697 -3.565585 10.573271 -17.922947 -3.113901 3e-06 -13.821205 -2e-06 -0.501777 -31.181501 -4.027016 -11.469515 -59.978413 7.144945 -13.98271 -7.150198 -2.875043 13.772726 -8.40149 -3.21824 0.347736 -34.211544 0.771654 -0.963029 -17.73337 2.621018 0.0 -2e-06 1e-06 -17.346413 -20.095217 -4.201784 21.757555 -1.638374 3.866426 1e-06 -6.338823 -1e-06 -1.697591 -22.591747 -6.194005 0.0 -4e-06 -2e-06 73.658875 -76.742043 130.237 18.231569 -26.133389 16.910709 61.61446 -1.119911 0.847535 1.990898 -0.91109 -16.130358 22.182112 -20.375883 49.933296 -16.701809 -16.743525 28.476519 -4e-06 -12.690598 -0.0 16.062334 -17.164968 2.760922 -0.105918 -1.513855 -4.27588 -5.039039 -5.612868 -2.953555 5e-06 -11.020523 -1e-06 -6.111295 -15.89533 -3.840473 0.0 0.0 -0.0 -10.283368 -5.680285 -4.341835 11.028294 -11.302406 -2.372632 -1.384268 -14.238577 -6.320122 -0.625435 -26.924189 -3.827601 -4.360387 -49.582756 -3.557948 -13.70852 -7.36347 -3.720937 18.141146 -14.052736 -3.242676 8e-06 -18.787266 -2e-06 -0.429709 -8.456041 2.555501 1e-06 -1e-06 -0.0 -15.92353 -20.094479 -5.473581 30.419205 -7.190827 1.735925 4e-06 -8.162922 -0.0 -1.861902 -22.861467 -6.16794 -1e-06 -4e-06 -0.0 -172.024216 -2.903759 -7.603175 29.576441 -0.321291 0.699004 -100.575363 5.946832 -4.138554 -5.844189 1.234326 2.07231 -0.999999 -0.0 0.0 -25.129026 -11.584275 -14.100994 17.360466 0.103572 -0.086801 -61.913795 -0.828083 -10.938411 -8.276476 0.94874 1.628856 -1.000002 0.0 -0.0 
0.0 0.0 0.0 0.0 -0.0 0.0 -8.790867 93.988762 250.818558 91.316551 3.870519 95.289093 7.286798 -0.074166 -0.565438 -9.337152 -0.386175 -1.134149 24.637171 -0.793657 -3.339501 41.044106 -0.718543 2.485404 -2.708266 -0.627387 -1.813415 -45.056572 -1.814283 -1.344318 6e-06 0.0 0.0 0.009695 0.002441 0.008542 0.141782 -0.081059 0.068678 0.15094 0.081025 -0.047417 -105.923988 -76.433655 128.112335 25.066273 -27.132389 14.15679 54.746353 -1.32713 -0.114594 6.004867 -0.834647 -10.469732 17.636629 -26.322731 52.411182 -19.466656 -14.395597 29.410385 -1e-06 -8.774821 -2e-06 16.319799 -18.299454 5.81855 -0.609776 -1.795653 -3.889327 -4.807086 -11.046805 -2.93785 5e-06 -20.976011 -1e-06 -5.019972 -25.033546 -4.031876 5e-06 0.0 -2e-06 -10.634533 -5.686967 -3.565588 10.573271 -17.922947 -3.113898 3e-06 -13.821205 2e-06 -0.50178 -31.181498 -4.027008 -11.600955 -60.07489 7.305648 -13.982712 -7.150195 -2.875045 13.772727 -8.401491 -3.218241 0.347734 -34.211544 0.771659 -0.963029 -17.73337 2.621021 -1e-06 -1e-06 -0.0 -17.346415 -20.095213 -4.201781 21.757555 -1.638378 3.866427 2e-06 -6.338823 0.0 -1.697586 -22.591742 -6.193999 -1e-06 -1e-06 -3e-06 73.956436 -77.03347 129.933868 18.562603 -25.592932 16.988874 61.811169 -0.945015 0.779314 1.884694 -1.05344 -16.506227 22.182119 -20.375898 49.933319 -16.701813 -16.743528 28.476524 -4e-06 -12.6906 -1e-06 16.049328 -17.221685 2.774917 -0.105919 -1.513857 -4.275882 -5.039041 -5.61287 -2.953554 4e-06 -11.020524 -1e-06 -6.111297 -15.895334 -3.84047 -0.0 0.0 -1e-06 -10.28337 -5.680286 -4.341838 11.028296 -11.302406 -2.37263 -1.384269 -14.238579 -6.320121 -0.625438 -26.924191 -3.827598 -4.324556 -49.452621 -3.694119 -13.708527 -7.363475 -3.720938 18.141148 -14.05274 -3.242673 7e-06 -18.787268 0.0 -0.429712 -8.456045 2.555508 0.0 -0.0 -1e-06 -15.923536 -20.094482 -5.473584 30.41921 -7.190827 1.735929 3e-06 -8.162924 1e-06 -1.861901 -22.861473 -6.167942 2e-06 -5e-06 -1e-06 -169.84137 -4.056132 -7.227128 27.260395 -0.333539 0.674529 -99.393105 5.780754 -5.052431 -6.343163 1.238865 2.120615 -0.999999 -0.0 -0.0 -26.036961 -10.989286 -14.399412 20.99291 0.088473 -0.054299 -60.648918 -0.808769 -9.117437 -7.780325 0.872474 1.621453 -1.000002 -0.0 -0.0 
0.0 0.0 0.0 0.0 -0.0 0.0 -9.961468 94.180649 253.237579 90.80793 3.579235 95.413284 7.206317 0.026737 -0.579481 -9.442272 -0.349181 -1.260789 24.589127 -0.533536 -3.324578 40.986012 -0.812464 2.411008 -2.749906 -0.698833 -1.737433 -44.906689 -1.548129 -1.468641 5e-06 -0.0 0.0 0.001716 0.003318 0.024492 0.174027 -0.084158 0.093822 0.181653 0.086936 -0.037025 -105.817314 -76.567368 128.08931 24.707592 -27.475813 14.53683 54.74725 -1.159925 -0.120172 5.86648 -0.635939 -10.976125 17.636631 -26.322733 52.411194 -19.46665 -14.395596 29.410385 -0.0 -8.774821 -3e-06 16.411936 -18.330917 5.802177 -0.609777 -1.795654 -3.889327 -4.807088 -11.046807 -2.937849 4e-06 -20.976011 0.0 -5.019972 -25.033552 -4.031876 6e-06 1e-06 -1e-06 -10.634533 -5.68697 -3.565588 10.573272 -17.922945 -3.1139 2e-06 -13.821206 1e-06 -0.501779 -31.181501 -4.027013 -11.391212 -60.061291 7.28125 -13.982713 -7.150196 -2.875044 13.772729 -8.401489 -3.218241 0.347734 -34.211544 0.771657 -0.963032 -17.733366 2.621023 -1e-06 1e-06 -0.0 -17.346416 -20.095213 -4.201785 21.757555 -1.638374 3.866428 2e-06 -6.338822 -0.0 -1.697589 -22.59174 -6.194003 1e-06 -5e-06 -1e-06 75.437836 -77.231049 128.457428 19.125736 -25.207373 17.146746 61.964188 -0.793753 0.580992 1.724712 -1.166948 -16.796846 22.182116 -20.375891 49.933319 -16.701809 -16.743528 28.476528 -3e-06 -12.6906 -1e-06 16.070957 -17.229898 2.789291 -0.105919 -1.513855 -4.275882 -5.039041 -5.612871 -2.953555 4e-06 -11.020523 -2e-06 -6.111299 -15.895332 -3.840468 -0.0 -0.0 -2e-06 -10.283368 -5.680287 -4.341842 11.028292 -11.302402 -2.372632 -1.384269 -14.238577 -6.320121 -0.62544 -26.924187 -3.827599 -4.396182 -49.519962 -3.535007 -13.708524 -7.363478 -3.720942 18.141148 -14.052737 -3.242676 7e-06 -18.787268 -1e-06 -0.429714 -8.456042 2.555507 1e-06 -1e-06 -0.0 -15.923534 -20.094482 -5.473583 30.419207 -7.190823 1.735926 3e-06 -8.162926 -0.0 -1.861903 -22.861469 -6.167941 -1e-06 -7e-06 0.0 -167.800995 -5.454924 -7.27731 25.613197 -0.393713 0.78938 -96.899307 6.22323 -5.623544 -7.631955 1.415739 2.142963 -1.0 0.0 -0.0 -26.65682 -10.304923 -14.97904 25.043526 0.123325 -0.054671 -62.419521 -1.178554 -7.259233 -7.020295 0.853565 1.635764 -1.000001 0.0 0.0 
0.0 0.0 0.0 0.0 -0.0 0.0 -11.220031 94.489281 255.71492 90.458809 3.389235 95.617592 7.102333 0.003398 -0.594118 -9.456516 -0.430868 -1.223595 24.500383 -0.35943 -3.484727 41.129078 -0.771791 2.457966 -2.771773 -0.501268 -1.761374 -44.898758 -1.383702 -1.39352 5e-06 -0.0 0.0 0.000689 -0.002124 0.015482 0.172203 -0.081205 0.080323 0.174359 0.076882 -0.040022 -104.976837 -76.764999 127.316902 24.438982 -27.64629 15.292954 54.736336 -0.961801 -0.149216 5.583375 -0.573394 -11.18706 17.636623 -26.322716 52.411167 -19.466654 -14.395592 29.410378 -1e-06 -8.774819 -1e-06 16.396313 -18.268772 5.875876 -0.609776 -1.795653 -3.889328 -4.807086 -11.046806 -2.937849 5e-06 -20.976006 -1e-06 -5.019967 -25.033546 -4.031878 6e-06 3e-06 -1e-06 -10.634529 -5.686969 -3.565586 10.573272 -17.922947 -3.113902 3e-06 -13.821204 -1e-06 -0.501775 -31.181498 -4.027013 -11.480134 -60.012817 7.441931 -13.982711 -7.150197 -2.87504 13.772726 -8.401491 -3.218242 0.347738 -34.211544 0.771651 -0.963026 -17.73337 2.621021 -1e-06 1e-06 1e-06 -17.346411 -20.095211 -4.201779 21.757555 -1.638374 3.866427 1e-06 -6.338821 0.0 -1.697585 -22.591738 -6.194005 -1e-06 -5e-06 -0.0 76.495682 -77.356018 127.246674 19.79178 -25.104313 17.05014 62.060028 -0.919566 0.649961 1.607196 -1.219865 -16.780775 22.182114 -20.375887 49.933308 -16.701809 -16.743525 28.476519 -2e-06 -12.690598 -1e-06 16.078245 -17.19838 2.748113 -0.10592 -1.513856 -4.275878 -5.039041 -5.61287 -2.953556 4e-06 -11.020523 -2e-06 -6.111297 -15.89533 -3.840469 -0.0 0.0 -0.0 -10.283367 -5.680287 -4.341835 11.028292 -11.302404 -2.372635 -1.384269 -14.238579 -6.320121 -0.62544 -26.924191 -3.827598 -4.348686 -49.351311 -3.656295 -13.70852 -7.363474 -3.720941 18.141146 -14.052739 -3.242671 7e-06 -18.787266 -3e-06 -0.429713 -8.456043 2.555508 1e-06 -1e-06 -0.0 -15.923536 -20.094482 -5.473581 30.41921 -7.190823 1.735925 2e-06 -8.162925 -1e-06 -1.861903 -22.861471 -6.167943 -1e-06 -2e-06 -0.0 -166.596634 -6.850111 -7.146313 25.548094 -0.507335 0.917949 -93.775322 6.939051 -5.889644 -9.926519 1.550506 2.143642 -0.999999 -0.0 -0.0 -26.599361 -9.584435 -15.65624 28.078194 0.104779 -0.033479 -65.809929 -1.623732 -6.249287 -6.657712 0.819736 1.63843 -1.000002 0.0 -0.0 
0.0 0.0 0.0 0.0 -0.0 0.0 -12.562224 94.877609 258.107697 90.240715 3.270216 95.787666 7.070123 -0.109996 -0.588216 -9.436457 -0.519012 -1.274632 24.285736 -0.442558 -3.547632 41.197502 -0.621522 2.389782 -2.777931 -0.496557 -1.613232 -44.564957 -1.119585 -1.578029 5e-06 0.0 0.0 0.002783 -0.007443 0.02044 0.158235 -0.084765 0.077714 0.151691 0.071698 -0.027065 -103.656158 -77.020393 125.954178 24.202112 -27.722076 16.388287 54.742657 -0.839656 -0.111846 5.177098 -0.776582 -10.473818 17.636627 -26.322733 52.411205 -19.46666 -14.395598 29.410389 0.0 -8.774822 1e-06 16.384655 -18.260679 5.902213 -0.609777 -1.795654 -3.88933 -4.80709 -11.046813 -2.93785 2e-06 -20.976019 -0.0 -5.019973 -25.033566 -4.031878 4e-06 2e-06 -1e-06 -10.634533 -5.68697 -3.565588 10.573271 -17.922951 -3.113899 1e-06 -13.82121 0.0 -0.501779 -31.181505 -4.027017 -11.403696 -59.995773 7.413573 -13.982713 -7.150198 -2.875042 13.772727 -8.401491 -3.218242 0.347734 -34.211555 0.771653 -0.96303 -17.733372 2.621019 1e-06 1e-06 1e-06 -17.346422 -20.095219 -4.201784 21.757561 -1.638374 3.866428 2e-06 -6.338825 0.0 -1.69759 -22.591751 -6.194009 0.0 -5e-06 -0.0 77.9431 -77.519264 125.691208 20.696714 -25.304773 17.066916 62.035629 -0.872007 0.739923 1.567083 -1.293274 -17.011797 22.182119 -20.375895 49.933319 -16.701813 -16.74353 28.47653 -2e-06 -12.690601 -1e-06 16.124725 -17.206085 2.72739 -0.10592 -1.513856 -4.275882 -5.039042 -5.612873 -2.953554 4e-06 -11.020525 -1e-06 -6.1113 -15.895334 -3.840472 -1e-06 -0.0 0.0 -10.283371 -5.680289 -4.341837 11.028295 -11.302406 -2.372633 -1.384269 -14.238583 -6.320123 -0.625438 -26.924194 -3.827605 -4.398894 -49.362328 -3.595541 -13.708525 -7.363476 -3.720938 18.14115 -14.052739 -3.242675 7e-06 -18.78727 -2e-06 -0.429714 -8.456042 2.555504 2e-06 -1e-06 -1e-06 -15.923536 -20.094486 -5.473588 30.419214 -7.190824 1.735927 3e-06 -8.162927 -1e-06 -1.861905 -22.861473 -6.16794 -3e-06 -1e-06 -2e-06 -166.540894 -8.383762 -7.062566 27.633327 -0.567896 1.004636 -89.923683 7.914954 -6.032945 -13.11862 1.665391 2.099025 -1.0 0.0 -0.0 -25.945358 -8.756527 -16.314537 29.946743 0.117855 -0.035162 -68.609123 -1.950831 -5.472875 -6.307504 0.78327 1.634932 -1.0 0.0 -0.0 
